<svg xmlns="http://www.w3.org/2000/svg" viewBox="0 0 200 48" width="200" height="48" fill="none">
  <defs>
    <linearGradient id="hm-sheen-dark" x1="0%" y1="0%" x2="100%" y2="100%">
      <stop offset="0%" stop-color="#FFFFFF" stop-opacity="0.15"/>
      <stop offset="100%" stop-color="#FFFFFF" stop-opacity="0"/>
    </linearGradient>
  </defs>
  <!-- Icon Mark -->
  <g transform="translate(0, 0)">
    <polygon points="24,3.06 42.14,13.53 42.14,34.47 24,44.94 5.86,34.47 5.86,13.53" fill="#0D0D0D" stroke="#C8FF00" stroke-width="1.5" stroke-linejoin="miter" stroke-miterlimit="4"/>
    <polygon points="24,4.5 40.8,14.2 40.8,33.8 24,43.5 7.2,33.8 7.2,14.2" fill="url(#hm-sheen-dark)"/>
    <line x1="24" y1="3.06" x2="24" y2="17.7" stroke="#C8FF00" stroke-width="1.5" stroke-linecap="square"/>
    <line x1="24" y1="29.46" x2="24" y2="44.94" stroke="#C8FF00" stroke-width="1.5" stroke-linecap="square"/>
    <line x1="10.78" y1="23.72" x2="37.22" y2="23.72" stroke="#C8FF00" stroke-width="1.5" stroke-linecap="square"/>
    <path d="M 10.78 23.72 L 10.78 16.3 L 18.06 12.1 L 18.06 20.11 L 20.3 20.11 C 22.32 20.11 23.86 19.38 24 17.7" stroke="#C8FF00" stroke-width="1.5" stroke-linejoin="miter" stroke-linecap="square" fill="none"/>
    <path d="M 37.22 23.72 L 37.22 16.3 L 29.94 12.1 L 29.94 20.11 L 27.7 20.11 C 25.68 20.11 24.14 19.38 24 17.7" stroke="#C8FF00" stroke-width="1.5" stroke-linejoin="miter" stroke-linecap="square" fill="none"/>
    <path d="M 15.18 18.46 L 15.18 35.06 L 18.06 36.74 L 18.06 28.06 L 20.3 28.06 C 22.32 28.06 23.86 28.48 24 29.46" stroke="#C8FF00" stroke-width="1.5" stroke-linejoin="miter" stroke-linecap="square" fill="none"/>
    <path d="M 32.82 18.46 L 32.82 35.06 L 29.94 36.74 L 29.94 28.06 L 27.7 28.06 C 25.68 28.06 24.14 28.48 24 29.46" stroke="#C8FF00" stroke-width="1.5" stroke-linejoin="miter" stroke-linecap="square" fill="none"/>
  </g>
  <!-- Typography -->
  <text x="60" y="32" font-family="'Space Grotesk', 'Inter', -apple-system, sans-serif" font-size="24" font-weight="700" fill="#EAE8E3" letter-spacing="-0.03em">HMorix</text>
  <circle cx="152" cy="22" r="3" fill="#C8FF00"/>
</svg>
